<?xml version="1.0" standalone="no"?>
<!DOCTYPE svg PUBLIC "-//W3C//DTD SVG 20010904//EN"
 "http://www.w3.org/TR/2001/REC-SVG-20010904/DTD/svg10.dtd">
<svg version="1.0" xmlns="http://www.w3.org/2000/svg"
 width="520.000000pt" height="520.000000pt" viewBox="0 0 520.000000 520.000000"
 preserveAspectRatio="xMidYMid meet">
<metadata>
Created by potrace 1.14, written by Peter Selinger 2001-2017
</metadata>
<g transform="translate(0.000000,520.000000) scale(0.100000,-0.100000)"
fill="#000000" stroke="none">
<path d="M827 5184 c-389 -71 -691 -352 -799 -744 l-23 -85 0 -1755 0 -1755
28 -100 c97 -354 364 -617 727 -717 l85 -23 1750 0 1750 0 90 23 c120 30 294
116 388 192 171 138 288 318 349 540 l23 85 0 1755 0 1755 -28 100 c-67 246
-217 449 -433 588 -88 57 -164 91 -279 125 l-90 27 -1730 2 c-1454 1 -1742 -1
-1808 -13z m2971 -760 c42 -8 115 -34 162 -57 121 -59 247 -185 312 -312 61
-119 95 -222 114 -348 63 -423 8 -1561 -97 -1971 -57 -225 -165 -415 -313
-553 -128 -120 -363 -252 -522 -294 -109 -28 -264 -28 -354 0 -207 65 -238
163 -210 664 17 309 16 520 -3 702 -26 248 -29 316 -17 410 14 112 40 191 129
388 39 85 83 190 98 233 l28 79 -3 295 c-4 331 3 392 58 501 36 70 115 154
185 195 134 78 274 101 433 68z m-1688 -140 c396 -68 678 -275 805 -589 22
-56 29 -91 33 -171 8 -174 -20 -266 -181 -591 -147 -297 -151 -332 -81 -728
34 -191 37 -228 38 -405 1 -215 -11 -300 -64 -456 -105 -310 -356 -516 -690
-565 -320 -46 -769 107 -1001 342 -115 116 -189 311 -177 464 14 168 162 330
526 575 210 142 239 166 298 242 117 156 133 294 53 465 -16 33 -72 119 -125
190 -207 277 -284 450 -284 639 0 118 20 198 80 320 78 161 177 246 324 280
77 18 311 12 446 -12z"/>
<path d="M3834 3521 c-81 -49 -150 -251 -218 -639 -14 -75 -36 -199 -50 -276
-63 -335 -90 -727 -58 -819 23 -64 63 -73 117 -26 169 149 373 869 392 1386 7
181 -4 263 -43 329 -15 27 -35 46 -55 53 -43 15 -49 14 -85 -8z"/>
<path d="M2109 3855 c-25 -8 -53 -23 -63 -34 -62 -68 -61 -250 0 -432 47 -135
126 -224 225 -250 123 -32 183 57 181 271 -1 123 -22 203 -77 295 -45 75 -69
101 -120 130 -54 31 -92 36 -146 20z"/>
<path d="M2069 2086 c-20 -7 -54 -24 -75 -37 -61 -37 -269 -214 -378 -320
l-99 -97 5 -49 c3 -31 14 -62 29 -82 36 -48 128 -106 203 -126 247 -67 407
127 445 538 12 130 6 162 -34 177 -34 13 -52 12 -96 -4z"/>
</g>
</svg>
