<?xml version="1.0" standalone="no"?>
<!DOCTYPE svg PUBLIC "-//W3C//DTD SVG 20010904//EN"
 "http://www.w3.org/TR/2001/REC-SVG-20010904/DTD/svg10.dtd">
<svg version="1.0" xmlns="http://www.w3.org/2000/svg"
 width="513.000000pt" height="513.000000pt" viewBox="0 0 513.000000 513.000000"
 preserveAspectRatio="xMidYMid meet">
<metadata>
Created by potrace 1.14, written by Peter Selinger 2001-2017
</metadata>
<g transform="translate(0.000000,513.000000) scale(0.100000,-0.100000)"
fill="#000000" stroke="none">
<path d="M858 5119 c-138 -20 -302 -83 -415 -160 -236 -159 -398 -423 -432
-704 -8 -62 -11 -590 -11 -1695 0 -1723 0 -1711 51 -1862 52 -157 130 -280
254 -403 104 -103 209 -171 344 -221 179 -68 87 -65 1957 -62 l1689 3 80 23
c99 28 249 99 331 157 213 153 363 395 403 655 9 56 11 512 9 1765 l-3 1690
-22 78 c-47 166 -132 314 -251 439 -150 157 -341 258 -555 293 -79 13 -325 15
-1732 14 -902 -1 -1666 -5 -1697 -10z m2749 -780 c306 -77 648 -379 757 -670
29 -77 68 -272 92 -455 23 -177 23 -535 0 -704 -32 -241 -76 -414 -153 -605
-191 -478 -572 -867 -983 -1006 -251 -85 -536 -27 -618 126 -22 42 -20 142 6
240 36 138 53 290 54 465 0 192 -10 275 -59 495 -29 132 -35 180 -35 275 0
137 13 184 128 461 136 328 142 359 154 719 7 217 12 280 29 345 72 275 311
394 628 314z m-1689 -100 c308 -34 529 -125 688 -283 164 -164 216 -360 164
-617 -26 -127 -60 -213 -170 -424 -48 -93 -98 -201 -111 -240 -34 -101 -32
-230 9 -450 67 -362 70 -598 11 -830 -55 -215 -193 -404 -370 -508 -279 -164
-708 -149 -1061 35 -269 141 -427 351 -428 568 0 238 161 442 515 652 112 66
158 101 231 173 105 104 144 173 152 270 9 124 -36 233 -208 495 -197 301
-243 408 -244 575 0 113 11 157 80 302 74 156 179 248 317 278 76 16 294 19
425 4z"/>
<path d="M3610 3323 c-26 -9 -71 -56 -90 -93 -42 -82 -170 -412 -191 -495 -21
-78 -24 -111 -23 -250 2 -211 34 -504 61 -567 27 -60 63 -83 128 -83 65 0 110
28 171 109 158 208 275 669 245 964 -21 202 -91 345 -193 396 -51 25 -77 30
-108 19z"/>
<path d="M1837 3796 c-50 -18 -76 -42 -98 -91 -58 -127 18 -361 167 -512 91
-93 167 -131 225 -114 167 50 186 476 28 656 -50 57 -98 75 -199 74 -47 0
-102 -6 -123 -13z"/>
<path d="M1886 2054 c-22 -8 -64 -33 -95 -56 -165 -123 -418 -357 -427 -394
-18 -71 50 -168 153 -218 152 -75 310 -31 402 112 63 98 111 295 111 455 0 64
-3 80 -20 97 -24 24 -67 25 -124 4z"/>
</g>
</svg>
