<?xml version="1.0" standalone="no"?>
<!DOCTYPE svg PUBLIC "-//W3C//DTD SVG 20010904//EN"
 "http://www.w3.org/TR/2001/REC-SVG-20010904/DTD/svg10.dtd">
<svg version="1.0" xmlns="http://www.w3.org/2000/svg"
 width="512.000000pt" height="512.000000pt" viewBox="0 0 512.000000 512.000000"
 preserveAspectRatio="xMidYMid meet">
<metadata>
Created by potrace 1.14, written by Peter Selinger 2001-2017
</metadata>
<g transform="translate(0.000000,512.000000) scale(0.100000,-0.100000)"
fill="#000000" stroke="none">
<path d="M2445 5056 c-588 -35 -1113 -71 -1166 -79 -312 -51 -609 -212 -841
-455 -91 -96 -206 -259 -262 -371 -88 -174 -149 -395 -164 -586 -10 -138 22
-1890 37 -1995 96 -663 584 -1197 1211 -1324 41 -8 545 -67 1120 -131 1011
-113 1050 -117 1205 -112 294 10 538 90 790 260 119 81 312 274 394 395 148
219 242 467 271 717 17 149 82 2021 77 2220 -6 269 -49 442 -169 677 -155 307
-387 538 -688 689 -194 97 -389 145 -620 153 -84 3 -479 -16 -1195 -58z m916
-1060 c185 -40 418 -210 540 -396 176 -267 257 -645 219 -1021 -43 -417 -224
-797 -516 -1079 -304 -294 -617 -396 -854 -277 -49 24 -70 42 -87 72 -29 51
-29 94 2 230 31 139 45 324 35 463 -10 125 -13 150 -47 297 -19 78 -26 139
-26 210 0 114 11 154 112 396 94 228 101 258 111 524 5 126 15 255 21 285 46
227 245 348 490 296z m-1345 -97 c364 -37 613 -193 685 -430 18 -60 21 -88 17
-187 -6 -148 -34 -233 -150 -462 -84 -163 -108 -236 -108 -321 0 -21 14 -118
32 -216 29 -163 32 -196 32 -383 0 -180 -3 -215 -22 -285 -65 -237 -214 -402
-424 -471 -116 -38 -318 -45 -459 -16 -240 49 -467 193 -562 354 -64 109 -73
249 -24 358 60 134 164 235 384 371 216 133 308 246 307 378 -1 106 -29 163
-216 453 -103 159 -139 249 -146 359 -5 99 10 162 66 278 60 124 155 201 269
221 71 12 196 11 319 -1z"/>
<path d="M3345 3126 c-34 -36 -87 -156 -158 -356 -36 -103 -41 -127 -45 -232
-6 -147 23 -446 48 -505 25 -57 58 -77 118 -70 41 4 53 12 97 59 58 63 111
164 153 293 54 165 67 245 67 425 -1 147 -3 172 -23 229 -44 122 -111 191
-187 191 -30 0 -44 -7 -70 -34z"/>
<path d="M1991 3548 c-59 -10 -89 -32 -112 -81 -23 -51 -24 -95 -4 -172 32
-122 124 -251 219 -305 61 -35 94 -37 130 -9 60 47 90 166 74 296 -14 119 -48
194 -112 244 -32 25 -128 39 -195 27z"/>
<path d="M1982 2130 c-50 -23 -208 -150 -331 -268 -82 -78 -84 -80 -78 -117
14 -85 138 -175 241 -175 70 0 150 40 193 97 59 79 100 226 104 377 3 67 0 80
-16 92 -26 19 -62 17 -113 -6z"/>
</g>
</svg>
