<?xml version="1.0" standalone="no"?>
<!DOCTYPE svg PUBLIC "-//W3C//DTD SVG 20010904//EN"
 "http://www.w3.org/TR/2001/REC-SVG-20010904/DTD/svg10.dtd">
<svg version="1.0" xmlns="http://www.w3.org/2000/svg"
 width="512.000000pt" height="512.000000pt" viewBox="0 0 512.000000 512.000000"
 preserveAspectRatio="xMidYMid meet">
<metadata>
Created by potrace 1.14, written by Peter Selinger 2001-2017
</metadata>
<g transform="translate(0.000000,512.000000) scale(0.100000,-0.100000)"
fill="#000000" stroke="none">
<path d="M2905 5085 c-308 -19 -792 -48 -1075 -64 -540 -32 -614 -42 -777 -96
-253 -85 -505 -258 -676 -463 -168 -202 -292 -454 -341 -692 -38 -187 -39
-235 -22 -1152 9 -486 21 -930 27 -988 65 -659 521 -1203 1147 -1366 74 -19
348 -53 1172 -145 1022 -115 1082 -120 1220 -115 286 11 535 92 775 252 326
218 570 578 654 966 32 148 38 260 78 1348 31 867 35 1032 25 1130 -23 218
-68 376 -162 565 -213 427 -599 728 -1059 826 -160 33 -352 32 -986 -6z m546
-1115 c117 -42 232 -115 334 -212 90 -85 180 -209 213 -293 55 -140 93 -413
93 -670 0 -331 -51 -585 -169 -845 -183 -403 -575 -733 -908 -765 -138 -13
-296 43 -341 121 -29 50 -29 94 2 229 53 236 52 472 -4 730 -58 265 -54 307
64 600 46 116 91 237 100 270 11 40 20 135 26 285 5 124 13 249 19 279 27 148
116 252 253 297 71 24 215 12 318 -26z m-1321 -75 c417 -74 639 -313 599 -647
-16 -132 -47 -219 -145 -404 -123 -233 -130 -279 -83 -549 31 -175 34 -206 33
-390 0 -174 -3 -210 -22 -280 -75 -273 -254 -446 -517 -496 -78 -15 -273 -12
-360 6 -232 48 -449 179 -551 332 -124 188 -89 394 99 576 56 54 134 109 305
216 134 83 221 187 242 287 22 106 -17 208 -169 439 -149 226 -191 326 -191
458 0 78 24 158 78 260 61 117 148 187 259 207 66 12 320 3 423 -15z"/>
<path d="M3355 3136 c-33 -35 -110 -210 -167 -381 -40 -120 -46 -249 -24 -485
24 -251 48 -300 144 -300 43 0 50 4 103 59 87 89 158 251 205 471 14 64 19
127 19 250 0 147 -3 172 -23 229 -44 123 -111 191 -187 191 -30 0 -44 -7 -70
-34z"/>
<path d="M1950 3543 c-42 -21 -80 -90 -80 -143 0 -104 64 -244 155 -335 98
-99 159 -117 220 -64 46 41 68 115 67 229 -1 137 -43 243 -118 302 -40 32
-191 38 -244 11z"/>
<path d="M1984 2135 c-53 -27 -202 -148 -328 -268 -77 -72 -79 -76 -73 -112
11 -68 81 -135 171 -165 58 -19 148 -8 197 24 99 66 164 231 171 434 3 73 0
85 -16 98 -29 21 -66 17 -122 -11z"/>
</g>
</svg>
